<?xml version="1.0"?>
<svg xmlns="http://www.w3.org/2000/svg" xmlns:xlink="http://www.w3.org/1999/xlink" version="1.1" id="Capa_1" x="0px" y="0px" viewBox="0 0 512 512" style="enable-background:new 0 0 512 512;" xml:space="preserve" width="512px" height="512px" class=""><g><circle style="fill:#FFB229" cx="190.801" cy="322.084" r="181.958" data-original="#8CC8D4" class="" data-old_color="#8CC8D4"/><path style="fill:#EB7D16" d="M372.758,322.091c0,100.492-81.464,181.955-181.955,181.955  c-75.356,0-140.023-45.818-167.649-111.102c33.284,36.612,81.304,59.606,134.683,59.606c100.492,0,181.955-81.473,181.955-181.965  c0-25.126-5.09-49.056-14.296-70.834C354.866,232.061,372.758,274.989,372.758,322.091z" data-original="#7FBAC1" class="active-path" data-old_color="#7FBAC1"/><path style="fill:#ACD36E" d="M366.874,146.66c0.394,0,0.774-0.109,1.107-0.32c6.881-4.376,79.33-53.419,5.308-134.227  l-2.671-2.962c-2.001-2.221-5.485-2.221-7.487,0l-2.671,2.962c-74.023,80.808-1.573,129.851,5.307,134.227  C366.101,146.551,366.48,146.66,366.874,146.66L366.874,146.66z" data-original="#ACD36E" class=""/><path style="fill:#A0C15F;" d="M366.876,146.66L366.876,146.66c-0.392,0-0.772-0.109-1.103-0.319  c-1.503-0.955-6.142-4.046-11.693-9.135c19.08-17.497,48.975-58.57-0.01-117.764c1.995-2.408,4.122-4.858,6.39-7.327l2.669-2.962  c2-2.221,5.484-2.222,7.486-0.003l2.676,2.965c74.027,80.813,1.554,129.86-5.314,134.228  C367.647,146.551,367.268,146.66,366.876,146.66z" data-original="#A0C15F" class=""/><path style="fill:#ACD36E" d="M364.498,188.263c0.01,0.394,0.129,0.771,0.349,1.098c4.557,6.762,55.506,77.885,134.32,1.744  l2.891-2.749c2.167-2.06,2.074-5.542-0.199-7.484l-3.032-2.591c-82.743-71.852-129.847,1.873-134.039,8.867  C364.586,187.486,364.488,187.87,364.498,188.263L364.498,188.263z" data-original="#ACD36E" class=""/><path style="fill:#A0C15F;" d="M501.865,180.875c2.272,1.942,2.365,5.424,0.198,7.483l-2.894,2.751  c-82.649,79.837-134.658-2.258-134.658-2.258l-0.03-1.18c0,0,2.853-5.079,8.436-11.641c17.256,18.596,60.173,50.577,120.123-2.59  c1.905,1.532,3.84,3.145,5.785,4.838L501.865,180.875z" data-original="#A0C15F" class=""/><circle style="fill:#FFB229" cx="190.672" cy="322.214" r="182.297" data-original="#8CC8D4" class="" data-old_color="#8CC8D4"/><path style="fill:#EB7D16" d="M372.758,324.399c0,99.898-80.982,180.88-180.88,180.88c-65.408,0-122.703-34.713-154.462-86.721  c30.64,23.837,69.139,38.022,110.947,38.022c99.898,0,180.88-80.982,180.88-180.88c0-34.498-9.661-66.741-26.425-94.167  C345.381,214.618,372.758,266.31,372.758,324.399z" data-original="#7FBAC1" class="active-path" data-old_color="#7FBAC1"/><path style="fill:#000100" d="M506.723,175.18l-2.987-2.552c-29.897-25.96-58.912-36.72-86.248-31.966  c-18.922,3.289-33.397,13.428-43.342,23.079c0.128-2.147,0.216-4.298,0.216-6.457v-6.201c8.852-6.15,33.934-26.193,38.693-58.657  c4.022-27.449-7.499-56.171-34.206-85.327l-2.67-2.961C373.807,1.508,370.417,0,366.874,0c-3.542,0-6.933,1.508-9.302,4.138  l-2.631,2.919c-26.747,29.199-38.268,57.921-34.246,85.37c4.759,32.464,29.84,52.506,38.693,58.657v6.201  c0,18.731-5.622,37.008-15.956,52.447c-34.592-46.852-90.183-77.301-152.759-77.301c-35.031,0-69.26,9.623-98.985,27.828  c-3.525,2.159-4.634,6.767-2.474,10.294c2.159,3.526,6.767,4.634,10.294,2.474c12.644-7.743,26.182-13.777,40.262-18.053  c-12.308,16.662-31.358,45.839-45.513,83.055H37.445c6.387-11.615,14.124-22.551,23.125-32.574  c2.763-3.075,2.508-7.808-0.568-10.571c-3.078-2.764-7.809-2.508-10.571,0.568C18.128,230.307,0.889,275.327,0.889,322.215  C0.889,426.863,86.025,512,190.674,512S380.46,426.863,380.46,322.215c0-36.352-10.282-70.343-28.076-99.234  c4.988-6.636,9.185-13.791,12.528-21.319c9.334,10.823,28.133,28.108,55.027,31.324c2.918,0.349,5.843,0.523,8.777,0.523  c24.784,0,50.187-12.418,75.611-36.979l2.891-2.75c2.566-2.439,3.984-5.871,3.89-9.411  C511.012,180.829,509.414,177.479,506.723,175.18z M336.39,225.755c0.299,0.642,0.694,1.245,1.181,1.793  c2.208,3.414,4.299,6.909,6.27,10.479h-56.71c-14.114-37.171-33.186-66.356-45.522-83.037  C280.795,166.953,314.186,192.326,336.39,225.755z M198.16,147.58c6.774,0.287,13.453,0.948,20.008,1.988  c1.352,1.532,31.839,36.493,52.804,88.459h-72.811V147.58H198.16z M163.158,149.594c6.613-1.049,13.297-1.727,20.029-2.013v90.447  h-72.833C131.156,186.47,161.483,151.501,163.158,149.594z M218.186,494.856c-6.562,1.042-13.245,1.714-20.026,2.001v-90.455h78.964  c-11.837,31.242-31.458,60.762-58.738,88.23C218.315,494.705,218.254,494.782,218.186,494.856z M183.188,496.857  c-6.781-0.287-13.464-0.959-20.025-2c-0.068-0.074-0.129-0.152-0.201-0.224c-27.468-27.659-47.13-57.12-58.957-88.23h79.183  L183.188,496.857L183.188,496.857z M98.959,391.431c-11.991-40.652-11.032-83.989,2.977-129.699  c0.904-2.951,1.853-5.862,2.836-8.733h78.416v138.432H98.959z M30.129,252.999h58.864c-0.412,1.277-0.82,2.559-1.219,3.851  c-12.502,40.542-15.207,80.201-8.041,117.875c1.068,5.615,2.364,11.183,3.871,16.706H30.162  c-9.194-21.237-14.301-44.64-14.301-69.216C15.86,298.168,20.789,274.658,30.129,252.999z M37.512,406.403H88.27  c10.127,28.883,26.412,56.375,48.679,82.168C94.332,474.774,58.829,445.031,37.512,406.403z M244.4,488.57  c22.305-25.823,38.565-53.286,48.68-82.167h50.757C322.52,445.03,287.017,474.774,244.4,488.57z M351.187,391.431h-53.447  c4.056-14.877,6.546-30.105,7.424-45.664c0.233-4.127-2.926-7.663-7.053-7.895c-4.119-0.217-7.663,2.924-7.895,7.053  c-0.894,15.86-3.592,31.372-8.052,46.507h-84.003V252.999h78.402c4.317,12.595,7.946,26.001,10.419,40.022  c0.641,3.631,3.799,6.185,7.363,6.185c0.432,0,0.869-0.037,1.311-0.115c4.071-0.719,6.789-4.601,6.071-8.673  c-2.306-13.066-5.531-25.578-9.344-37.419h58.805c9.196,21.237,14.301,44.64,14.301,69.217  C365.488,346.791,360.379,370.194,351.187,391.431z M366.021,17.126l0.853-0.947l0.894,0.991c5.19,5.666,9.733,11.277,13.628,16.826  l-14.736,18.832l-16.279-15.93C354.698,30.393,359.907,23.799,366.021,17.126z M342.685,50.312l19.482,19.065  c0.005,0.005,0.011,0.009,0.016,0.014c0.091,0.089,0.191,0.171,0.287,0.255c0.098,0.086,0.194,0.176,0.295,0.257  c0.008,0.006,0.015,0.014,0.023,0.02c0.016,0.012,0.034,0.02,0.05,0.032c0.304,0.235,0.623,0.441,0.951,0.623  c0.036,0.02,0.07,0.042,0.105,0.061c0.325,0.173,0.661,0.314,1.002,0.436c0.068,0.024,0.135,0.048,0.203,0.07  c0.335,0.108,0.675,0.194,1.019,0.254c0.064,0.011,0.127,0.018,0.191,0.027c0.359,0.053,0.72,0.087,1.082,0.088  c0.002,0,0.004,0,0.005,0s0.001,0,0.001,0c0.001,0,0.002,0,0.002,0c0.264,0,0.526-0.016,0.788-0.044  c0.073-0.008,0.144-0.022,0.217-0.032c0.19-0.026,0.378-0.055,0.566-0.095c0.086-0.018,0.17-0.042,0.255-0.063  c0.172-0.043,0.342-0.09,0.511-0.146c0.09-0.03,0.179-0.062,0.267-0.095c0.16-0.059,0.316-0.123,0.473-0.194  c0.093-0.042,0.184-0.084,0.274-0.13c0.147-0.073,0.289-0.154,0.432-0.237c0.093-0.055,0.187-0.108,0.277-0.167  c0.135-0.087,0.264-0.183,0.394-0.278c0.091-0.067,0.183-0.131,0.271-0.203c0.133-0.109,0.26-0.228,0.386-0.346  c0.074-0.07,0.153-0.134,0.225-0.208c0.005-0.006,0.012-0.01,0.017-0.016c0.19-0.195,0.365-0.397,0.53-0.606  c0.005-0.006,0.01-0.011,0.015-0.017l16.433-21c2.904,5.603,5.113,11.134,6.632,16.585l-27.884,34.556l-30.88-35.297  C338.857,59.144,340.55,54.752,342.685,50.312z M366.897,137.995c-0.008,0-0.015-0.001-0.023-0.001  c-0.016,0-0.031,0.002-0.047,0.002c-7.909-5.74-27.598-22.356-31.318-47.741c-0.343-2.346-0.535-4.712-0.591-7.096l28.157,32.185  c0.044,0.05,0.093,0.092,0.137,0.141c0.112,0.121,0.225,0.24,0.345,0.353c0.091,0.086,0.184,0.168,0.277,0.249  c0.059,0.051,0.113,0.106,0.174,0.155c0.027,0.022,0.058,0.036,0.085,0.057c0.307,0.242,0.628,0.46,0.963,0.648  c0.045,0.025,0.091,0.045,0.137,0.07c0.307,0.164,0.624,0.304,0.947,0.422c0.059,0.022,0.117,0.047,0.177,0.068  c0.341,0.115,0.69,0.202,1.043,0.265c0.086,0.016,0.171,0.028,0.257,0.04c0.356,0.053,0.716,0.088,1.076,0.089  c0.004,0,0.009,0.001,0.013,0.001c0.001,0,0.002,0,0.004,0s0.003,0,0.004,0c0.252,0,0.502-0.016,0.753-0.041  c0.064-0.007,0.128-0.017,0.192-0.025c0.192-0.024,0.381-0.055,0.571-0.094c0.07-0.014,0.14-0.03,0.21-0.047  c0.188-0.044,0.373-0.097,0.558-0.156c0.062-0.02,0.124-0.038,0.185-0.059c0.222-0.077,0.44-0.165,0.656-0.264  c0.019-0.009,0.039-0.016,0.058-0.025c0.23-0.108,0.453-0.23,0.674-0.362c0.073-0.044,0.143-0.094,0.215-0.141  c0.141-0.092,0.28-0.187,0.417-0.288c0.087-0.065,0.171-0.134,0.255-0.203c0.062-0.051,0.126-0.096,0.187-0.149  c0.056-0.049,0.105-0.104,0.159-0.154c0.088-0.081,0.174-0.164,0.258-0.25c0.123-0.125,0.239-0.255,0.35-0.386  c0.042-0.05,0.089-0.093,0.13-0.144l24.216-30.011c-0.095,1.683-0.255,3.358-0.494,5.022  C394.605,115.443,374.819,132.208,366.897,137.995z M421.843,218.135c-25.439-2.983-42.739-22.37-48.71-30.114  c5.508-8.037,21.605-28.209,46.918-32.608c2.433-0.423,4.893-0.681,7.375-0.793l-31.9,27.352c-0.015,0.013-0.027,0.027-0.042,0.04  c-0.1,0.087-0.194,0.182-0.289,0.274c-0.093,0.09-0.188,0.179-0.275,0.272c-0.014,0.015-0.029,0.027-0.043,0.042  c-0.055,0.06-0.102,0.126-0.155,0.187c-0.101,0.118-0.202,0.235-0.294,0.356c-0.061,0.081-0.115,0.164-0.173,0.247  c-0.084,0.121-0.169,0.241-0.245,0.365c-0.059,0.096-0.11,0.195-0.165,0.293c-0.063,0.115-0.128,0.229-0.184,0.345  c-0.055,0.113-0.102,0.228-0.15,0.342c-0.045,0.107-0.092,0.213-0.132,0.321c-0.046,0.125-0.084,0.251-0.124,0.377  c-0.032,0.103-0.066,0.206-0.093,0.31c-0.034,0.13-0.061,0.262-0.088,0.392c-0.022,0.104-0.045,0.208-0.062,0.313  c-0.021,0.129-0.034,0.259-0.049,0.388c-0.012,0.111-0.026,0.221-0.033,0.331c-0.008,0.123-0.009,0.246-0.011,0.368  c-0.002,0.119-0.005,0.238-0.001,0.357c0.004,0.115,0.014,0.229,0.023,0.342c0.01,0.127,0.019,0.254,0.035,0.38  c0.014,0.108,0.035,0.216,0.053,0.323c0.023,0.13,0.044,0.26,0.074,0.388c0.025,0.107,0.055,0.212,0.085,0.317  c0.035,0.126,0.068,0.253,0.11,0.376c0.037,0.112,0.081,0.221,0.124,0.33c0.044,0.115,0.087,0.229,0.137,0.341  c0.054,0.122,0.116,0.24,0.177,0.358c0.05,0.097,0.097,0.195,0.151,0.29c0.074,0.13,0.156,0.256,0.238,0.382  c0.053,0.081,0.102,0.164,0.159,0.243c0.091,0.129,0.192,0.253,0.291,0.377c0.048,0.06,0.09,0.123,0.141,0.182  c0.012,0.014,0.025,0.025,0.037,0.039c0.127,0.145,0.264,0.283,0.402,0.42c0.057,0.056,0.11,0.117,0.169,0.171  c0.008,0.007,0.014,0.015,0.022,0.022l27.373,25.042C422.427,218.192,422.134,218.169,421.843,218.135z M443.296,216.753  l-31.61-28.918l35.96-30.834c3.815,1.04,7.677,2.412,11.583,4.115l-22.588,19.565c-0.007,0.006-0.015,0.013-0.022,0.019l-0.01,0.009  c-0.078,0.067-0.146,0.141-0.219,0.21c-0.105,0.099-0.214,0.194-0.314,0.299c-0.002,0.002-0.004,0.005-0.006,0.007  c-0.527,0.556-0.954,1.176-1.279,1.837c-0.215,0.436-0.383,0.889-0.508,1.351c0,0.001,0,0.001-0.001,0.002  c-0.054,0.2-0.095,0.401-0.132,0.603c-0.006,0.034-0.016,0.068-0.022,0.103c-0.027,0.16-0.042,0.321-0.058,0.482  c-0.008,0.079-0.022,0.157-0.028,0.236c-0.008,0.117-0.006,0.235-0.009,0.352c-0.003,0.124-0.011,0.248-0.008,0.371  c0.002,0.072,0.012,0.144,0.016,0.216c0.009,0.169,0.017,0.337,0.038,0.505c0.003,0.026,0.01,0.052,0.013,0.078  c0.091,0.685,0.273,1.361,0.557,2.008c0.294,0.675,0.694,1.313,1.196,1.892c0.002,0.002,0.004,0.005,0.005,0.007  c0.027,0.032,0.058,0.058,0.086,0.089c0.136,0.152,0.273,0.301,0.424,0.444l0.072,0.069l0,0l21.044,19.94  C452.708,213.987,447.979,215.634,443.296,216.753z M493.966,185.72c-7.667,7.407-15.261,13.562-22.764,18.469l-18.544-17.571  l20.76-17.982c6.735,4.186,13.586,9.294,20.546,15.336l0.97,0.828L493.966,185.72z" data-original="#000100" class="" data-old_color="#000100"/></g> </svg>
